<mxfile host="app.diagrams.net" agent="Mozilla/5.0 (Windows NT 10.0; Win64; x64) AppleWebKit/537.36 (KHTML, like Gecko) Chrome/134.0.0.0 Safari/537.36 Edg/134.0.0.0" version="26.1.0">
  <diagram name="1 oldal" id="DDnRHMLyNOomL21jcbwn">
    <mxGraphModel dx="1442" dy="1331" grid="0" gridSize="10" guides="1" tooltips="1" connect="1" arrows="1" fold="1" page="0" pageScale="1" pageWidth="827" pageHeight="1169" math="0" shadow="0">
      <root>
        <mxCell id="0" />
        <mxCell id="1" parent="0" />
        <mxCell id="QRsG81JnR-2wK5V9ntbt-3" value="HWLUB0_orarend" style="rounded=0;whiteSpace=wrap;html=1;" vertex="1" parent="1">
          <mxGeometry x="341" y="-527" width="120" height="60" as="geometry" />
        </mxCell>
        <mxCell id="QRsG81JnR-2wK5V9ntbt-9" value="" style="endArrow=none;html=1;rounded=0;entryX=0.5;entryY=1;entryDx=0;entryDy=0;" edge="1" parent="1" source="QRsG81JnR-2wK5V9ntbt-11" target="QRsG81JnR-2wK5V9ntbt-3">
          <mxGeometry width="50" height="50" relative="1" as="geometry">
            <mxPoint x="396" y="-386" as="sourcePoint" />
            <mxPoint x="438" y="-472" as="targetPoint" />
          </mxGeometry>
        </mxCell>
        <mxCell id="QRsG81JnR-2wK5V9ntbt-11" value="Ora" style="ellipse;whiteSpace=wrap;html=1;" vertex="1" parent="1">
          <mxGeometry x="341" y="-395" width="120" height="80" as="geometry" />
        </mxCell>
        <mxCell id="QRsG81JnR-2wK5V9ntbt-16" value="" style="endArrow=none;html=1;rounded=0;exitX=0;exitY=0.5;exitDx=0;exitDy=0;" edge="1" parent="1" source="QRsG81JnR-2wK5V9ntbt-11" target="QRsG81JnR-2wK5V9ntbt-17">
          <mxGeometry width="50" height="50" relative="1" as="geometry">
            <mxPoint x="251" y="-355" as="sourcePoint" />
            <mxPoint x="341" y="-355" as="targetPoint" />
          </mxGeometry>
        </mxCell>
        <mxCell id="QRsG81JnR-2wK5V9ntbt-17" value="ID" style="rhombus;whiteSpace=wrap;html=1;" vertex="1" parent="1">
          <mxGeometry x="174" y="-395" width="80" height="80" as="geometry" />
        </mxCell>
        <mxCell id="QRsG81JnR-2wK5V9ntbt-22" value="tipus" style="rhombus;whiteSpace=wrap;html=1;" vertex="1" parent="1">
          <mxGeometry x="564" y="-395" width="80" height="80" as="geometry" />
        </mxCell>
        <mxCell id="QRsG81JnR-2wK5V9ntbt-24" value="targy" style="ellipse;whiteSpace=wrap;html=1;" vertex="1" parent="1">
          <mxGeometry x="-53" y="-212" width="118" height="64" as="geometry" />
        </mxCell>
        <mxCell id="QRsG81JnR-2wK5V9ntbt-25" value="idopont" style="ellipse;whiteSpace=wrap;html=1;" vertex="1" parent="1">
          <mxGeometry x="139" y="-214" width="130" height="68" as="geometry" />
        </mxCell>
        <mxCell id="QRsG81JnR-2wK5V9ntbt-26" value="helyszin" style="ellipse;whiteSpace=wrap;html=1;" vertex="1" parent="1">
          <mxGeometry x="333" y="-214" width="132" height="68" as="geometry" />
        </mxCell>
        <mxCell id="QRsG81JnR-2wK5V9ntbt-28" value="oktato" style="ellipse;whiteSpace=wrap;html=1;" vertex="1" parent="1">
          <mxGeometry x="508" y="-214" width="132" height="68" as="geometry" />
        </mxCell>
        <mxCell id="QRsG81JnR-2wK5V9ntbt-30" value="&lt;div&gt;szak&lt;/div&gt;" style="ellipse;whiteSpace=wrap;html=1;" vertex="1" parent="1">
          <mxGeometry x="687" y="-214" width="132" height="68" as="geometry" />
        </mxCell>
        <mxCell id="QRsG81JnR-2wK5V9ntbt-35" value="ora" style="ellipse;whiteSpace=wrap;html=1;" vertex="1" parent="1">
          <mxGeometry x="348" y="-391" width="106" height="72" as="geometry" />
        </mxCell>
        <mxCell id="QRsG81JnR-2wK5V9ntbt-50" value="" style="endArrow=none;html=1;rounded=0;exitX=0.5;exitY=0;exitDx=0;exitDy=0;entryX=0.5;entryY=1;entryDx=0;entryDy=0;" edge="1" parent="1" source="QRsG81JnR-2wK5V9ntbt-51" target="QRsG81JnR-2wK5V9ntbt-25">
          <mxGeometry width="50" height="50" relative="1" as="geometry">
            <mxPoint x="188" y="-53" as="sourcePoint" />
            <mxPoint x="185" y="-124" as="targetPoint" />
          </mxGeometry>
        </mxCell>
        <mxCell id="QRsG81JnR-2wK5V9ntbt-51" value="tol" style="ellipse;whiteSpace=wrap;html=1;" vertex="1" parent="1">
          <mxGeometry x="121" y="-57" width="132" height="68" as="geometry" />
        </mxCell>
        <mxCell id="QRsG81JnR-2wK5V9ntbt-52" value="nap" style="ellipse;whiteSpace=wrap;html=1;" vertex="1" parent="1">
          <mxGeometry x="-35" y="-57" width="132" height="68" as="geometry" />
        </mxCell>
        <mxCell id="QRsG81JnR-2wK5V9ntbt-53" value="ig" style="ellipse;whiteSpace=wrap;html=1;" vertex="1" parent="1">
          <mxGeometry x="264" y="-57" width="132" height="68" as="geometry" />
        </mxCell>
        <mxCell id="QRsG81JnR-2wK5V9ntbt-54" value="" style="endArrow=none;html=1;rounded=0;entryX=0.5;entryY=1;entryDx=0;entryDy=0;" edge="1" parent="1" source="QRsG81JnR-2wK5V9ntbt-52" target="QRsG81JnR-2wK5V9ntbt-25">
          <mxGeometry width="50" height="50" relative="1" as="geometry">
            <mxPoint x="101" y="-66" as="sourcePoint" />
            <mxPoint x="99" y="-133" as="targetPoint" />
          </mxGeometry>
        </mxCell>
        <mxCell id="QRsG81JnR-2wK5V9ntbt-55" value="" style="endArrow=none;html=1;rounded=0;entryX=0.5;entryY=1;entryDx=0;entryDy=0;" edge="1" parent="1" source="QRsG81JnR-2wK5V9ntbt-53" target="QRsG81JnR-2wK5V9ntbt-25">
          <mxGeometry width="50" height="50" relative="1" as="geometry">
            <mxPoint x="229" y="-74" as="sourcePoint" />
            <mxPoint x="279" y="-124" as="targetPoint" />
          </mxGeometry>
        </mxCell>
        <mxCell id="QRsG81JnR-2wK5V9ntbt-56" value="" style="endArrow=none;html=1;rounded=0;exitX=0.719;exitY=0.031;exitDx=0;exitDy=0;exitPerimeter=0;entryX=0.5;entryY=1;entryDx=0;entryDy=0;" edge="1" parent="1" source="QRsG81JnR-2wK5V9ntbt-24" target="QRsG81JnR-2wK5V9ntbt-11">
          <mxGeometry width="50" height="50" relative="1" as="geometry">
            <mxPoint x="26" y="-216" as="sourcePoint" />
            <mxPoint x="76" y="-266" as="targetPoint" />
          </mxGeometry>
        </mxCell>
        <mxCell id="QRsG81JnR-2wK5V9ntbt-57" value="" style="endArrow=none;html=1;rounded=0;entryX=0.5;entryY=1;entryDx=0;entryDy=0;exitX=0.53;exitY=0.015;exitDx=0;exitDy=0;exitPerimeter=0;" edge="1" parent="1" source="QRsG81JnR-2wK5V9ntbt-26" target="QRsG81JnR-2wK5V9ntbt-11">
          <mxGeometry width="50" height="50" relative="1" as="geometry">
            <mxPoint x="395" y="-222" as="sourcePoint" />
            <mxPoint x="432" y="-315" as="targetPoint" />
          </mxGeometry>
        </mxCell>
        <mxCell id="QRsG81JnR-2wK5V9ntbt-58" value="" style="endArrow=none;html=1;rounded=0;exitX=0.5;exitY=0;exitDx=0;exitDy=0;entryX=0.5;entryY=1;entryDx=0;entryDy=0;" edge="1" parent="1" source="QRsG81JnR-2wK5V9ntbt-25" target="QRsG81JnR-2wK5V9ntbt-11">
          <mxGeometry width="50" height="50" relative="1" as="geometry">
            <mxPoint x="234" y="-222" as="sourcePoint" />
            <mxPoint x="284" y="-272" as="targetPoint" />
          </mxGeometry>
        </mxCell>
        <mxCell id="QRsG81JnR-2wK5V9ntbt-59" value="" style="endArrow=none;html=1;rounded=0;exitX=0.5;exitY=0;exitDx=0;exitDy=0;entryX=0.5;entryY=1;entryDx=0;entryDy=0;" edge="1" parent="1" source="QRsG81JnR-2wK5V9ntbt-28" target="QRsG81JnR-2wK5V9ntbt-11">
          <mxGeometry width="50" height="50" relative="1" as="geometry">
            <mxPoint x="490" y="-260" as="sourcePoint" />
            <mxPoint x="540" y="-310" as="targetPoint" />
          </mxGeometry>
        </mxCell>
        <mxCell id="QRsG81JnR-2wK5V9ntbt-60" value="" style="endArrow=none;html=1;rounded=0;exitX=0.5;exitY=0;exitDx=0;exitDy=0;entryX=0.5;entryY=1;entryDx=0;entryDy=0;" edge="1" parent="1" source="QRsG81JnR-2wK5V9ntbt-30" target="QRsG81JnR-2wK5V9ntbt-11">
          <mxGeometry width="50" height="50" relative="1" as="geometry">
            <mxPoint x="633" y="-246" as="sourcePoint" />
            <mxPoint x="683" y="-296" as="targetPoint" />
          </mxGeometry>
        </mxCell>
        <mxCell id="QRsG81JnR-2wK5V9ntbt-62" value="" style="endArrow=none;html=1;rounded=0;exitX=1;exitY=0.5;exitDx=0;exitDy=0;entryX=0;entryY=0.5;entryDx=0;entryDy=0;" edge="1" parent="1" source="QRsG81JnR-2wK5V9ntbt-11" target="QRsG81JnR-2wK5V9ntbt-22">
          <mxGeometry width="50" height="50" relative="1" as="geometry">
            <mxPoint x="500" y="-352" as="sourcePoint" />
            <mxPoint x="550" y="-402" as="targetPoint" />
          </mxGeometry>
        </mxCell>
      </root>
    </mxGraphModel>
  </diagram>
</mxfile>
